<svg xmlns="http://www.w3.org/2000/svg" xmlns:xlink="http://www.w3.org/1999/xlink" width="480" height="46">
  <svg width="15" height="15">
    <path fill="#51cacc" d="M7.5 3.6c.249 0 .45.322.45.72v.36c0 .398-.201.72-.45.72s-.45-.322-.45-.72v-.36c0-.398.201-.72.45-.72zM9.45 4.122c.215.124.229.504.03.849l-.18.312c-.199.344-.534.523-.75.399s-.229-.504-.03-.849l.18-.312c.199-.344.534-.523.75-.399zM10.878 5.55c.124.215-.054.551-.399.75l-.312.18c-.344.199-.724.186-.849-.03s.054-.551.399-.75l.312-.18c.344-.199.724-.186.849.03zM11.4 7.5c0 .249-.322.45-.72.45h-.36c-.398 0-.72-.201-.72-.45s.322-.45.72-.45h.36c.398 0 .72.201.72.45zM10.878 9.45c-.124.215-.504.229-.849.03l-.312-.18c-.344-.199-.523-.534-.399-.75s.504-.229.849-.03l.312.18c.344.199.523.534.399.75zM9.45 10.878c-.215.124-.551-.054-.75-.399l-.18-.312c-.199-.344-.186-.724.03-.849s.551.054.75.399l.18.312c.199.344.186.724-.03.849zM7.5 11.4c-.249 0-.45-.322-.45-.72v-.36c0-.398.201-.72.45-.72s.45.322.45.72v.36c0 .398-.201.72-.45.72zM5.55 10.878c-.215-.124-.229-.504-.03-.849l.18-.312c.199-.344.534-.523.75-.399s.229.504.03.849l-.18.312c-.199.344-.534.523-.75.399zM4.122 9.45c-.124-.215.054-.551.399-.75l.312-.18c.344-.199.724-.186.849.03s-.054.551-.399.75l-.312.18c-.344.199-.724.186-.849-.03zM3.6 7.5c0-.249.322-.45.72-.45h.36c.398 0 .72.201.72.45s-.322.45-.72.45h-.36c-.398 0-.72-.201-.72-.45zM4.122 5.55c.124-.215.504-.229.849-.03l.312.18c.344.199.523.534.399.75s-.504.229-.849.03l-.312-.18c-.344-.199-.523-.534-.399-.75zM5.55 4.122c.215-.124.551.054.75.399l.18.312c.199.344.186.724-.03.849s-.551-.054-.75-.399l-.18-.312c-.199-.344-.186-.724.03-.849z"/>
  </svg>
  <svg width="15" height="15" y="31">
    <path fill="#fff" d="M8.906 2.813h2.344V0H8.906a3.285 3.285 0 0 0-3.281 3.281v1.406H3.75V7.5h1.875V15h2.813V7.5h2.344l.469-2.813H8.438V3.281c0-.254.215-.469.469-.469z"/>
  </svg>
  <svg width="15" height="15" x="31" y="31">
    <path fill="#fff" d="M7.5 1.351c2.004 0 2.241.009 3.029.044.732.032 1.128.155 1.392.258.349.135.601.299.861.56.264.264.425.513.563.861.103.264.226.662.258 1.392.035.791.044 1.028.044 3.029s-.009 2.241-.044 3.029c-.032.732-.155 1.128-.258 1.392a2.31 2.31 0 0 1-.56.861 2.358 2.358 0 0 1-.861.563c-.264.103-.662.226-1.392.258-.791.035-1.028.044-3.029.044s-2.241-.009-3.029-.044c-.732-.032-1.128-.155-1.392-.258a2.31 2.31 0 0 1-.861-.56 2.358 2.358 0 0 1-.563-.861c-.103-.264-.226-.662-.258-1.392-.035-.791-.044-1.028-.044-3.029s.009-2.241.044-3.029c.032-.732.155-1.128.258-1.392a2.31 2.31 0 0 1 .56-.861c.264-.264.513-.425.861-.563.264-.103.662-.226 1.392-.258.788-.035 1.025-.044 3.029-.044zM7.5 0C5.464 0 5.209.009 4.409.044 3.612.079 3.064.208 2.59.393a3.655 3.655 0 0 0-1.33.867 3.67 3.67 0 0 0-.867 1.327C.208 3.065.08 3.609.044 4.406.009 5.209 0 5.464 0 7.5s.009 2.291.044 3.091c.035.797.164 1.345.349 1.819.193.495.448.914.867 1.33a3.66 3.66 0 0 0 1.327.864c.478.185 1.022.313 1.819.349.8.035 1.055.044 3.091.044s2.291-.009 3.091-.044c.797-.035 1.345-.164 1.819-.349.492-.19.911-.448 1.327-.864s.674-.835.864-1.327c.185-.478.313-1.022.349-1.819.035-.8.044-1.055.044-3.091s-.009-2.291-.044-3.091c-.035-.797-.164-1.345-.349-1.819a3.516 3.516 0 0 0-.858-1.333 3.66 3.66 0 0 0-1.327-.864c-.478-.185-1.022-.313-1.819-.349C9.791.009 9.536 0 7.5 0z"/>
    <path fill="#fff" d="M7.5 3.647a3.854 3.854 0 0 0 0 7.706 3.854 3.854 0 0 0 0-7.706zm0 6.352a2.5 2.5 0 1 1 0-4.998 2.5 2.5 0 0 1 0 4.998zM12.404 3.495a.899.899 0 1 1-1.798 0 .899.899 0 0 1 1.798 0z"/>
  </svg>
  <svg width="15" height="15" x="62" y="31">
    <path fill="#fff" d="M7.5 0C3.375 0 0 3.375 0 7.5S3.375 15 7.5 15 15 11.625 15 7.5 11.663 0 7.5 0zm3.451 10.837c-.149.226-.413.299-.639.149-1.764-1.087-3.976-1.313-6.601-.712-.264.076-.486-.111-.563-.337-.076-.264.111-.486.337-.563 2.851-.639 5.326-.375 7.274.826.264.111.302.41.19.636zm.9-2.063c-.188.264-.524.375-.788.188-2.024-1.236-5.101-1.611-7.462-.861-.299.076-.639-.076-.712-.375-.076-.299.076-.639.375-.712C6 6.188 9.375 6.601 11.702 8.028c.223.111.337.486.149.747zm.073-2.1C9.525 5.25 5.511 5.098 3.223 5.813a.701.701 0 0 1-.861-.451.701.701 0 0 1 .451-.861c2.663-.788 7.049-.639 9.826 1.014.337.188.451.639.264.976-.19.261-.639.372-.979.185z"/>
  </svg>
</svg>
